<?xml version="1.0" encoding="UTF-8" standalone="no"?>
<!-- Created with Inkscape (http://www.inkscape.org/) -->

<svg
   width="25.94973mm"
   height="17.172922mm"
   viewBox="0 0 25.94973 17.172922"
   version="1.1"
   id="svg1"
   inkscape:version="1.4.1-rc (06eac75fbf, 2025-03-29)"
   sodipodi:docname="changeDirections.svg"
   xmlns:inkscape="http://www.inkscape.org/namespaces/inkscape"
   xmlns:sodipodi="http://sodipodi.sourceforge.net/DTD/sodipodi-0.dtd"
   xmlns="http://www.w3.org/2000/svg"
   xmlns:svg="http://www.w3.org/2000/svg">
  <sodipodi:namedview
     id="namedview1"
     pagecolor="#ffffff"
     bordercolor="#666666"
     borderopacity="1.0"
     inkscape:showpageshadow="2"
     inkscape:pageopacity="0.0"
     inkscape:pagecheckerboard="0"
     inkscape:deskcolor="#d1d1d1"
     inkscape:document-units="mm"
     inkscape:zoom="0.72248176"
     inkscape:cx="-137.02768"
     inkscape:cy="364.71509"
     inkscape:window-width="1850"
     inkscape:window-height="1016"
     inkscape:window-x="0"
     inkscape:window-y="0"
     inkscape:window-maximized="1"
     inkscape:current-layer="layer1" />
  <defs
     id="defs1" />
  <g
     inkscape:label="Layer 1"
     inkscape:groupmode="layer"
     id="layer1"
     transform="translate(-141.2875,-51.858333)">
    <g
       id="g10422"
       transform="matrix(-0.86117803,0,0,-0.86117803,245.76652,168.26094)"
       style="display:inline">
      <path
         id="path8941"
         style="fill:#08b108;fill-opacity:0.643137;stroke:#000000;stroke-width:0.448675"
         d="m 98.988228,119.77624 c -0.03494,-0.003 -0.07435,0.003 -0.118811,0.0146 -0.205568,0.057 -0.357849,0.26618 -0.507927,0.40541 -0.412677,0.38298 -0.804421,0.79229 -1.202705,1.19057 l -4.172269,4.17227 -1.209959,1.20995 c -0.181087,0.18204 -0.397228,0.38523 -0.360102,0.66757 0.03479,0.26461 0.26661,0.44886 0.443548,0.62584 l 1.084789,1.08479 c 1.409431,1.40944 2.860598,2.78129 4.248625,4.21025 0.412638,0.42481 0.839502,0.83703 1.258771,1.25542 0.154375,0.15405 0.334412,0.38167 0.582244,0.32034 0.32602,-0.0807 0.210489,-0.69755 0.210489,-0.94617 v -2.41993 c 0,-0.22584 -0.09431,-0.70279 0.169334,-0.80927 0.217333,-0.0878 0.558476,-0.0251 0.790285,-0.0251 h 1.75235 6.0498 1.62719 c 0.24341,0 0.56322,0.0534 0.79207,-0.042 0.45924,-0.19164 0.29271,-1.02063 0.29271,-1.41826 v -3.88021 c 0,-0.3755 0.1516,-1.1198 -0.25098,-1.32762 -0.23302,-0.12029 -0.61961,-0.0492 -0.87553,-0.0492 h -1.96097 -5.59084 -1.75235 c -0.25856,0 -0.582807,0.0525 -0.833641,-0.0133 -0.310333,-0.0813 -0.209428,-0.57955 -0.209428,-0.82117 v -2.50336 c 0,-0.23205 0.08106,-0.87968 -0.256693,-0.90127 z" />
      <path
         style="fill:#191919;stroke:none;stroke-width:0.0417226"
         d="m 113.90928,115.81117 5.13189,5.09017 1.33513,1.33512 0.47435,0.5424 -0.3909,0.50068 -1.2934,1.2934 -5.25707,5.25706 v -2.79542 c 0,-0.34037 0.0902,-0.85194 -0.17639,-1.117 -0.31439,-0.31254 -1.28206,-0.13472 -1.70113,-0.13468 -0.15303,0 -0.55562,-0.032 -0.46516,0.24432 0.0576,0.17599 0.32393,0.13118 0.46516,0.13118 0.30867,0 1.34877,-0.16559 1.44703,0.20941 0.0752,0.28701 0.0133,0.66272 0.0133,0.95882 v 2.0027 c 0,0.26397 -0.11745,0.88631 0.17144,1.02812 0.21587,0.10599 0.41793,-0.10864 0.55554,-0.24732 0.41831,-0.42158 0.85593,-0.81998 1.27571,-1.23975 l 4.50605,-4.50606 c 0.36128,-0.36127 1.47803,-1.12438 1.30142,-1.71063 -0.0771,-0.25588 -0.32669,-0.44384 -0.50869,-0.62583 l -1.08478,-1.0848 c -1.38449,-1.38448 -2.78738,-2.74565 -4.17228,-4.13054 -0.43112,-0.43113 -0.86078,-0.86375 -1.2934,-1.29338 -0.15212,-0.15107 -0.37843,-0.39405 -0.61632,-0.24921 -0.21847,0.13304 -0.13469,0.57625 -0.13469,0.79157 v 2.3782 c 0,0.24678 0.11549,0.86116 -0.16935,0.97618 -0.21733,0.0877 -0.55846,0.0251 -0.79027,0.0251 h -1.71062 -5.96635 -1.79408 c -0.24194,0 -0.57016,-0.0563 -0.79092,0.0608 -0.31414,0.16668 -0.25214,0.55933 -0.25214,0.85711 v 1.96096 c 0,0.24708 -0.0749,0.64137 0.0251,0.87 0.0643,0.14691 0.26085,0.14691 0.32515,0 0.0915,-0.20898 0.0251,-0.56117 0.0251,-0.78655 v -1.8358 c 0,-0.16948 -0.0642,-0.51136 0.0669,-0.6424 0.13628,-0.13627 0.50717,-0.0669 0.6841,-0.0669 h 1.91925 6.21667 1.6272 c 0.24695,0 0.53534,0.0379 0.74916,-0.11279 0.33254,-0.23431 0.25217,-0.70256 0.25217,-1.05546 z"
         id="path8943" />
    </g>
  </g>
</svg>
