<?xml version="1.0" encoding="UTF-8" standalone="no"?>
<!-- Created with Inkscape (http://www.inkscape.org/) -->

<svg
   width="13.365551mm"
   height="16.086317mm"
   viewBox="0 0 13.365551 16.086317"
   version="1.1"
   id="svg1"
   inkscape:version="1.4.1-rc (06eac75fbf, 2025-03-29)"
   sodipodi:docname="coin.svg"
   xmlns:inkscape="http://www.inkscape.org/namespaces/inkscape"
   xmlns:sodipodi="http://sodipodi.sourceforge.net/DTD/sodipodi-0.dtd"
   xmlns:xlink="http://www.w3.org/1999/xlink"
   xmlns="http://www.w3.org/2000/svg"
   xmlns:svg="http://www.w3.org/2000/svg">
  <sodipodi:namedview
     id="namedview1"
     pagecolor="#ffffff"
     bordercolor="#666666"
     borderopacity="1.0"
     inkscape:showpageshadow="2"
     inkscape:pageopacity="0.0"
     inkscape:pagecheckerboard="0"
     inkscape:deskcolor="#d1d1d1"
     inkscape:document-units="mm"
     inkscape:zoom="0.72248176"
     inkscape:cx="67.821781"
     inkscape:cy="382.70862"
     inkscape:window-width="1850"
     inkscape:window-height="1016"
     inkscape:window-x="0"
     inkscape:window-y="0"
     inkscape:window-maximized="1"
     inkscape:current-layer="layer1" />
  <defs
     id="defs1">
    <radialGradient
       inkscape:collect="always"
       xlink:href="#linearGradient15186"
       id="radialGradient18868"
       gradientUnits="userSpaceOnUse"
       gradientTransform="matrix(0.35309368,-2.4100133,0.61234239,0.08971495,-21.056487,-24.549519)"
       cx="-19.716579"
       cy="29.112318"
       fx="-19.716579"
       fy="29.112318"
       r="6.6531382" />
    <linearGradient
       inkscape:collect="always"
       id="linearGradient15186">
      <stop
         style="stop-color:#ffd179;stop-opacity:1"
         offset="0"
         id="stop15182" />
      <stop
         style="stop-color:#654d27;stop-opacity:1"
         offset="1"
         id="stop15184" />
    </linearGradient>
    <inkscape:path-effect
       effect="spiro"
       id="path-effect18866"
       is_visible="true"
       lpeversion="1" />
    <linearGradient
       inkscape:collect="always"
       xlink:href="#linearGradient790"
       id="linearGradient18870"
       gradientUnits="userSpaceOnUse"
       gradientTransform="matrix(0.72772257,0,0,1.0160665,15.994392,40.186537)"
       x1="-28.922768"
       y1="-22.7463"
       x2="-28.562195"
       y2="-9.1509943" />
    <linearGradient
       inkscape:collect="always"
       id="linearGradient790">
      <stop
         style="stop-color:#ffcc76;stop-opacity:1"
         offset="0"
         id="stop786" />
      <stop
         style="stop-color:#b88f4f;stop-opacity:1"
         offset="1"
         id="stop788" />
    </linearGradient>
  </defs>
  <g
     inkscape:label="Layer 1"
     inkscape:groupmode="layer"
     id="layer1"
     transform="translate(-86.988038,-47.385321)">
    <g
       id="g18862"
       transform="translate(106.3742,36.198966)"
       style="display:inline">
      <path
         style="fill:url(#radialGradient18868);fill-opacity:1;fill-rule:evenodd;stroke:none;stroke-width:1.35551"
         d="m -6.2882101,16.578258 c 0.071348,0.241128 0.1265473,0.487033 0.165106,0.735522 0.045414,0.29267 0.067725,0.58877 0.07076,0.884927 0.00373,0.364356 -0.02164,0.728314 -0.04717,1.091793 -0.026727,0.380514 -0.05373,0.761752 -0.117932,1.137762 -0.054996,0.322095 -0.1370531,0.638924 -0.22407,0.953881 -0.077005,0.278717 -0.158078,0.556656 -0.259451,0.827463 -0.1546741,0.413196 -0.3557054,0.807412 -0.566075,1.195225 -0.1681779,0.310034 -0.3429029,0.617103 -0.542489,0.907912 -0.17488,0.254811 -0.3685593,0.496649 -0.577868,0.724029 -0.2026062,0.220098 -0.419593,0.426425 -0.636835,0.632091 -0.1458065,0.138037 -0.2919927,0.27602 -0.448142,0.402239 -0.2097042,0.169508 -0.4365879,0.317102 -0.6722139,0.44821 -0.329847,0.183535 -0.677639,0.335221 -1.037803,0.448208 -0.322395,0.101139 -0.654629,0.171227 -0.990631,0.206867 -0.180329,0.01913 -0.361537,0.02834 -0.542488,0.04023 -0.334019,0.02194 -0.667715,0.05301 -1.002424,0.05747 -0.243804,0.0032 -0.487544,-0.0076 -0.73118,-0.01724 -0.236873,-0.0093 -0.474969,-0.01758 -0.707593,-0.06321 -0.245126,-0.04808 -0.480606,-0.13706 -0.707594,-0.241344 -0.299572,-0.13763 -0.586672,-0.302657 -0.855009,-0.494179 -0.208952,-0.149137 -0.406499,-0.314309 -0.589663,-0.49418 -0.164719,-0.161758 -0.317722,-0.335302 -0.459934,-0.517164 -0.316475,-0.404711 -0.579104,-0.850186 -0.796041,-1.315896 -0.149315,-0.320542 -0.277272,-0.651011 -0.383281,-0.98836 -0.194604,-0.619285 -0.314918,-1.261091 -0.371486,-1.907763 -0.08447,-0.965609 -0.02692,-1.941573 0.141519,-2.896122 0.09045,-0.512561 0.212747,-1.019485 0.36559,-1.517017 0.158445,-0.515764 0.35001,-1.022114 0.589662,-1.505523 0.343693,-0.693273 0.786029,-1.337496 1.309047,-1.907763 0.300831,-0.328008 0.627813,-0.631289 0.967044,-0.919405 0.256857,-0.218153 0.522152,-0.428653 0.813733,-0.597611 0.34144,-0.197849 0.713687,-0.335778 1.084977,-0.469452 0.238878,-0.086 0.480074,-0.171118 0.731178,-0.208609 0.374203,-0.05587 0.754765,-0.004 1.13215,0.02299 0.281794,0.02018 0.568761,0.02722 0.837318,0.114926 0.253053,0.08264 0.477737,0.233106 0.719388,0.344776 0.237774,0.109879 0.491393,0.181898 0.7311789,0.287314 0.2582913,0.113552 0.4979451,0.264665 0.742973,0.404557 0.1776476,0.101423 0.3586921,0.197255 0.530696,0.30798 0.3181037,0.204774 0.6031758,0.459547 0.849112,0.747015 0.2148136,0.251089 0.3995316,0.526293 0.577867,0.804479 0.1472393,0.229679 0.2910188,0.462853 0.400969,0.712538 0.1219819,0.277008 0.2007441,0.570667 0.283038,0.861941 0.071682,0.253712 0.1463793,0.506572 0.224072,0.758509 z"
         id="path18844"
         inkscape:original-d="m -6.2882101,16.578258 c 0.07442,0.252576 0.110337,0.490608 0.165106,0.735522 0.05477,0.244915 0.04745,0.590212 0.07076,0.884927 0.02331,0.294715 -0.03119,0.728122 -0.04717,1.091793 -0.01599,0.36367 -0.07836,0.758768 -0.117932,1.137762 -0.03957,0.378994 -0.149114,0.63618 -0.22407,0.953881 -0.07496,0.3177 -0.172701,0.551903 -0.259451,0.827463 -0.08674,0.275562 -0.377118,0.797077 -0.566075,1.195225 -0.188959,0.398149 -0.361392,0.605535 -0.542489,0.907912 -0.181096,0.302376 -0.384979,0.482946 -0.577868,0.724029 -0.19289,0.241084 -0.424289,0.421654 -0.636835,0.632091 -0.212544,0.210437 -0.298495,0.268419 -0.448142,0.402239 -0.149647,0.133819 -0.447875,0.299066 -0.6722139,0.44821 -0.224338,0.149143 -0.691602,0.299066 -1.037803,0.448208 -0.346202,0.149144 -0.660153,0.138171 -0.990631,0.206867 -0.330477,0.06869 -0.361392,0.02708 -0.542488,0.04023 -0.181096,0.01315 -0.668016,0.03857 -1.002424,0.05747 -0.334409,0.01889 -0.487186,-0.01123 -0.73118,-0.01724 -0.243993,-0.006 -0.471462,-0.04188 -0.707593,-0.06321 -0.236132,-0.02133 -0.471463,-0.160636 -0.707594,-0.241344 -0.236131,-0.08071 -0.569739,-0.329193 -0.855009,-0.494179 -0.285268,-0.164987 -0.392841,-0.329193 -0.589663,-0.49418 -0.196817,-0.164986 -0.306354,-0.344516 -0.459934,-0.517164 -0.153578,-0.172649 -0.530428,-0.877005 -0.796041,-1.315896 -0.265614,-0.438892 -0.255254,-0.658647 -0.383281,-0.98836 -0.128028,-0.329713 -0.24739,-1.271581 -0.371486,-1.907763 -0.124095,-0.63618 0.09462,-1.930488 0.141519,-2.896122 0.04691,-0.965634 0.243992,-1.011084 0.36559,-1.517017 0.121595,-0.505931 0.393375,-1.003422 0.589662,-1.505523 0.196286,-0.502102 0.872966,-1.271583 1.309047,-1.907763 0.436081,-0.636182 0.644963,-0.612677 0.967044,-0.919405 0.322081,-0.306727 0.542754,-0.398147 0.813733,-0.597611 0.270976,-0.199464 0.723584,-0.312709 1.084977,-0.469452 0.361392,-0.156745 0.487718,-0.138813 0.731178,-0.208609 0.243461,-0.06979 0.755034,0.01558 1.13215,0.02299 0.377116,0.0074 0.558479,0.07688 0.837318,0.114926 0.27884,0.03805 0.479859,0.230111 0.719388,0.344776 0.239528,0.114666 0.48772,0.191803 0.7311789,0.287314 0.24346,0.09551 0.495583,0.269964 0.742973,0.404557 0.247392,0.134592 0.354064,0.20558 0.530696,0.30798 0.176631,0.1024 0.566341,0.498271 0.849112,0.747015 0.28277,0.248746 0.385512,0.536579 0.577867,0.804479 0.192357,0.267899 0.267581,0.475285 0.400969,0.712538 0.133391,0.237253 0.188959,0.574888 0.283038,0.861941 0.09408,0.287054 0.149648,0.505932 0.224072,0.758509 z"
         inkscape:path-effect="#path-effect18866" />
      <ellipse
         style="fill:url(#linearGradient18870);fill-opacity:1;fill-rule:evenodd;stroke:none;stroke-width:0.124684"
         id="ellipse18846"
         cx="-4.7909613"
         cy="23.750647"
         rx="5.1122561"
         ry="7.1378727"
         transform="matrix(0.7989792,0.60135866,-0.40523827,0.9142111,0,0)" />
      <path
         id="path18848"
         style="fill:none;fill-opacity:1;fill-rule:evenodd;stroke:#ffde80;stroke-width:0.916383;stroke-opacity:1"
         d="m -9.4494581,22.399808 c -1.6529059,3.693941 -5.4177999,4.804391 -7.2894879,3.324983 -2.201865,-1.740389 -2.84231,-6.309003 -1.189403,-10.002945 1.652907,-3.693942 5.13133,-5.018669 7.182867,-3.273979 2.2020409,1.872683 2.9489309,6.257999 1.2960239,9.951941 z"
         sodipodi:nodetypes="sssss" />
      <path
         style="display:inline;fill:#000000;fill-opacity:0.475874;stroke-width:0.0413693"
         d="m -13.569631,11.258438 c -2.308426,0.483145 -4.373455,2.733659 -5.336781,5.816149 -0.198214,0.634253 -0.384012,1.545127 -0.442731,2.170498 -0.0769,0.818842 -0.02953,2.17808 0.100794,2.892707 0.27652,1.516342 0.925137,2.849361 1.828445,3.757769 0.621547,0.625056 1.243709,1.009698 2.010546,1.242987 l 0.369511,0.112413 1.260184,-0.005 c 1.537087,-0.0061 1.934532,-0.0462 2.603476,-0.26274 0.79206,-0.256378 1.4640476,-0.649848 2.0802121,-1.218032 l 0.27304,-0.251778 -0.2964273,0.23978 c -0.8496593,0.687287 -1.6874488,1.09704 -2.6443628,1.293332 -0.398636,0.08177 -1.937939,0.158656 -2.58302,0.129013 -0.863195,-0.03967 -1.441464,-0.221287 -2.14836,-0.674763 -1.375332,-0.882286 -2.288436,-2.401181 -2.671845,-4.44446 -0.102157,-0.544417 -0.110915,-0.678665 -0.111643,-1.71118 -8.47e-4,-1.198809 0.03231,-1.523961 0.253419,-2.485285 0.401625,-1.746148 1.285024,-3.489079 2.337311,-4.611478 1.385821,-1.478152 2.902174,-2.130804 4.560137,-1.962727 0.14889,0.01509 0.246487,0.04264 0.23194,0.06547 -0.0155,0.02434 0.02912,0.029 0.116661,0.01222 0.08739,-0.01676 0.12106,-0.01326 0.08777,0.0091 -0.03793,0.02552 -4.28e-4,0.05171 0.126019,0.08803 0.577026,0.165676 1.202918,0.522603 1.732976,0.988265 0.2264859,0.198969 0.2661939,0.22314 0.1753875,0.106762 -0.064558,-0.08274 -0.2246606,-0.237658 -0.3557775,-0.344257 -0.131118,-0.106603 -0.26675,-0.218506 -0.301406,-0.248676 -0.03466,-0.03017 -0.100815,-0.08144 -0.147021,-0.113947 -0.1107,-0.07788 0.426924,0.156698 1.0139296,0.442376 0.8141221,0.396211 1.5533155,1.016253 1.9956655,1.673983 0.5087494,0.756463 0.9733566,1.91024 1.1987471,2.976906 0.1036992,0.490749 0.1122762,0.607955 0.1133844,1.549468 7.438e-4,0.628977 -0.019752,1.15881 -0.053575,1.385243 -0.1599306,1.070747 -0.521083,2.271665 -0.940573,3.127627 -0.3545168,0.723386 -0.9462483,1.661963 -1.3417005,2.128137 l -0.2073667,0.244454 0.2574064,-0.264823 c 0.5371307,-0.55261 1.3063341,-1.790609 1.6789293,-2.702165 0.2128126,-0.520644 0.4922608,-1.517211 0.5886154,-2.099117 0.1109951,-0.670322 0.1666139,-1.799798 0.1212702,-2.462725 -0.1119405,-1.636598 -0.803412,-3.388588 -1.7573494,-4.452626 -0.5866164,-0.654323 -1.1899705,-1.026535 -2.8354153,-1.749182 -0.807638,-0.354698 -1.123886,-0.427593 -1.953287,-0.450232 -0.492786,-0.01344 -0.681278,-0.0015 -0.987146,0.0625 z m 2.109936,0.147983 c -0.01395,0.01353 -0.05019,0.01499 -0.08051,0.0033 -0.03352,-0.013 -0.02354,-0.02266 0.02537,-0.02463 0.04428,-0.0018 0.0691,0.0079 0.05514,0.02142 z m 0.809492,0.321696 c 0.05776,0.03201 0.08612,0.05823 0.06301,0.05823 -0.0231,0 -0.08926,-0.02621 -0.147022,-0.05823 -0.05776,-0.03201 -0.08612,-0.05822 -0.06301,-0.05822 0.0231,0 0.08926,0.02621 0.147022,0.05822 z m -3.192467,0.613287 c -0.419723,0.08729 -0.75474,0.217516 -1.004486,0.390439 -0.271182,0.187765 -0.255821,0.207412 0.02638,0.03373 0.387046,-0.238188 1.163017,-0.408293 1.833368,-0.401901 0.486375,0.0046 0.412811,0.06325 -0.09917,0.079 l -0.315047,0.0097 0.410647,0.03707 c 0.225854,0.0204 0.518847,0.07103 0.651096,0.112529 l 0.24045,0.07546 -0.231035,0.0086 -0.231034,0.0085 0.252037,0.0479 c 0.156935,0.02983 0.228262,0.05872 0.189029,0.07656 -0.03466,0.01577 0.0032,0.01961 0.08402,0.0086 0.122754,-0.01676 0.131343,-0.01352 0.05204,0.01971 -0.06169,0.02585 -0.170473,0.02592 -0.310279,2.03e-4 -0.420147,-0.07729 -0.971561,-0.03554 -1.432826,0.108474 -0.114122,0.03565 -0.18845,0.08029 -0.173266,0.104125 0.01701,0.0267 -0.0074,0.03125 -0.06795,0.01262 -0.06867,-0.02115 -0.08591,-0.01557 -0.06302,0.02037 0.0229,0.03595 0.0042,0.04197 -0.06825,0.02207 -0.06096,-0.01674 -0.07952,-0.01364 -0.04769,0.008 0.03612,0.02454 0.004,0.05196 -0.105015,0.08949 -0.62023,0.213612 -1.621106,0.994791 -2.095989,1.635908 -0.166792,0.225176 -0.236526,0.270503 -0.104299,0.0678 0.376558,-0.577279 0.877566,-1.065306 1.518512,-1.479166 0.371926,-0.240151 1.012609,-0.539979 1.175773,-0.550237 0.0363,-0.0023 0.04268,-0.01205 0.01506,-0.02304 -0.06757,-0.02688 -0.520759,0.126988 -0.855344,0.290413 -0.155383,0.0759 -0.432218,0.247403 -0.615184,0.381126 -0.394244,0.28813 -1.139081,1.024473 -1.409744,1.393658 -0.213502,0.291226 -0.789323,1.251602 -0.789323,1.316471 0,0.02278 0.123335,-0.168241 0.274078,-0.424474 0.150744,-0.256231 0.303538,-0.493579 0.339546,-0.527438 0.03601,-0.03385 -0.0045,0.05532 -0.09013,0.198149 -0.36912,0.616122 -0.773655,1.556945 -0.940283,2.186811 -0.30922,1.168863 -0.418197,2.557315 -0.278055,3.542606 0.114885,0.807717 0.112683,0.784317 0.06517,0.692621 -0.07784,-0.150253 3.65e-4,0.179759 0.148926,0.628397 0.07734,0.233578 0.129171,0.442669 0.115167,0.464647 -0.01493,0.02344 -0.0036,0.02682 0.02754,0.0083 0.03941,-0.02363 0.04531,-0.0083 0.02299,0.05992 -0.02248,0.0687 -0.01654,0.08364 0.02363,0.05952 0.03846,-0.02306 0.04582,-0.01238 0.02597,0.03775 -0.01521,0.03845 -0.01242,0.06078 0.0062,0.04961 0.01863,-0.01117 0.08438,0.07956 0.146084,0.201596 0.137851,0.272617 0.112394,0.295814 -0.03113,0.02837 -0.05712,-0.106439 -0.104745,-0.179254 -0.105822,-0.161806 -0.0044,0.07253 0.255967,0.519583 0.2906,0.498822 0.02072,-0.01243 0.05137,-0.0012 0.06809,0.02511 0.01897,0.02979 0.01219,0.03679 -0.01811,0.01862 -0.06026,-0.03613 -0.06174,-0.0022 -0.0043,0.101786 0.02427,0.04397 0.06076,0.06996 0.0811,0.05777 0.02036,-0.0122 0.05068,-7.11e-4 0.06739,0.02552 0.01898,0.02979 0.01218,0.03679 -0.01811,0.01862 -0.09502,-0.05697 -0.0449,0.03939 0.103989,0.199821 0.08318,0.08964 0.12543,0.126301 0.09388,0.08149 -0.05256,-0.07469 -0.05125,-0.07687 0.01572,-0.02595 0.04018,0.03055 0.06152,0.07364 0.04741,0.09577 -0.02752,0.04319 0.485543,0.568329 0.529502,0.541979 0.01447,-0.0086 0.110432,0.04883 0.21325,0.127811 0.102818,0.07898 0.305083,0.207696 0.44948,0.286063 0.263827,0.143181 0.37016,0.232283 0.138605,0.116145 -0.148265,-0.07438 -0.185306,-0.07822 -0.145095,-0.01512 0.01872,0.02938 0.01151,0.03598 -0.01922,0.01755 -0.02705,-0.01622 -0.03632,-0.04967 -0.02061,-0.07432 0.01857,-0.02913 0.0034,-0.03545 -0.0435,-0.01801 -0.04282,0.01594 -0.06166,0.01048 -0.04641,-0.01344 0.01412,-0.02215 0.01038,-0.0418 -0.0082,-0.04367 -0.01869,-0.0019 -0.07983,-0.0083 -0.135871,-0.01409 -0.101291,-0.01064 -0.101189,-0.01015 0.01736,0.08151 0.289254,0.223702 1.025594,0.472439 1.361942,0.460064 0.108219,-0.0041 0.121149,-0.01009 0.04579,-0.02158 -0.261437,-0.03995 -0.719103,-0.144563 -0.702556,-0.160611 0.01012,-0.0098 0.139188,0.0099 0.286925,0.04365 0.544445,0.124474 1.375707,0.06518 1.931473,-0.137756 0.94136,-0.343747 2.130609,-1.422073 2.800792,-2.539554 0.235767,-0.393122 0.2849215,-0.416348 0.0664,-0.03137 -0.309173,0.544688 -0.702467,1.038079 -1.259244,1.579738 -0.578344,0.56264 -0.604993,0.615613 -0.07915,0.157323 1.459976,-1.272388 2.4286403,-3.312744 2.670577,-5.625192 0.063098,-0.603126 0.029811,-1.847766 -0.063813,-2.385376 -0.08144,-0.467683 -0.2513726,-1.109232 -0.386349,-1.458576 -0.6147504,-1.591082 -1.760523,-2.681387 -3.073945,-2.925138 -0.385519,-0.07154 -1.075893,-0.06863 -1.435017,0.0061 z m 1.42821,0.0997 c -0.03466,0.02172 -0.110267,0.03795 -0.168026,0.03607 l -0.105015,-0.0035 0.105015,-0.03262 c 0.05776,-0.01794 0.13337,-0.03417 0.168026,-0.03605 0.05602,-0.0031 0.05602,9.5e-4 0,0.03605 z m 0.168024,0.04075 c -0.03466,0.02173 -0.09136,0.03848 -0.126018,0.03725 -0.04155,-0.0015 -0.0344,-0.01416 0.021,-0.03725 0.115479,-0.04812 0.181801,-0.04812 0.105013,0 z m 0.282667,0.228327 c -0.01395,0.01353 -0.05019,0.01497 -0.08051,0.0033 -0.03352,-0.013 -0.02355,-0.02266 0.02538,-0.02463 0.04428,-0.0018 0.0691,0.0079 0.05514,0.02141 z m 0.137395,0.179096 c -0.03466,0.02172 -0.09136,0.03849 -0.126017,0.03725 -0.04155,-0.0015 -0.0344,-0.01417 0.021,-0.03725 0.115478,-0.04813 0.1818,-0.04813 0.105014,0 z m -0.147021,0.103431 c 0.36513,0.0926 0.966089,0.393565 1.281186,0.64164 1.2604433,0.992339 1.9321907,3.501341 1.5746462,5.881362 -0.2543449,1.69306 -0.9716072,3.324768 -1.9781572,4.500128 -0.684267,0.799027 -1.578103,1.409959 -2.326888,1.590412 -0.332492,0.08013 -1.1701,0.06859 -1.512222,-0.02084 -0.375477,-0.09814 -0.890039,-0.348079 -1.226886,-0.595935 -0.589552,-0.433798 -1.167887,-1.225651 -1.425424,-1.95167 -0.118628,-0.334426 -0.06864,-0.288661 0.08888,0.08135 0.299564,0.703735 0.973584,1.52164 1.612767,1.957046 0.325534,0.22175 0.800477,0.413447 1.196569,0.482956 0.343022,0.0602 0.381718,0.02889 0.04896,-0.0396 -0.596903,-0.12286 -1.318713,-0.515237 -1.776905,-0.965928 -0.407728,-0.401054 -0.571752,-0.621604 -0.827064,-1.112099 -0.508712,-0.977312 -0.759122,-2.037378 -0.765121,-3.239019 -0.0034,-0.674726 0.04421,-1.35806 0.08961,-1.28682 0.01604,0.02517 0.07137,-0.174749 0.122964,-0.444257 0.05159,-0.269509 0.08289,-0.507159 0.06953,-0.528111 -0.0384,-0.06027 0.367136,-1.205152 0.577981,-1.631709 0.223426,-0.452003 0.45461,-0.809231 0.769827,-1.18954 0.227644,-0.274651 0.285542,-0.375429 0.156254,-0.271986 -0.178354,0.142702 0.05829,-0.160115 0.378962,-0.484932 0.45923,-0.465166 0.798103,-0.707932 1.350169,-0.967255 0.562183,-0.264075 0.756497,-0.32227 0.432075,-0.129399 -0.226589,0.134708 -0.747123,0.512983 -0.747123,0.542938 0,0.0077 0.137046,-0.07526 0.304545,-0.18412 0.336797,-0.21892 0.802088,-0.453781 1.060657,-0.53538 l 0.168024,-0.05303 -0.126019,-0.04427 c -0.121038,-0.04251 -0.116058,-0.04532 0.126019,-0.07074 0.368424,-0.03868 1.01262,-0.0046 1.302191,0.06878 z m -4.267174,2.208698 c -0.463928,0.712354 -0.940863,1.74099 -1.128715,2.434357 -0.397686,1.467882 -0.482627,3.018825 -0.229652,4.193199 0.0876,0.40666 0.23458,0.926922 0.255999,0.906148 0.0099,-0.0096 -0.01991,-0.161697 -0.06629,-0.337956 -0.145108,-0.551522 -0.216415,-1.07081 -0.24262,-1.766826 -0.06514,-1.730664 0.36451,-3.430441 1.266072,-5.00862 0.394205,-0.690053 0.477044,-0.92984 0.145204,-0.420302 z m -0.710558,8.307052 c 0,0.02187 0.02941,0.07534 0.06532,0.118833 0.0616,0.07457 0.06246,0.07327 0.01531,-0.02277 -0.06123,-0.124713 -0.08064,-0.147827 -0.08064,-0.09606 z m 0.252037,0.462744 c 0.02472,0.04482 0.05442,0.08148 0.06597,0.08148 0.01155,0 7.69e-4,-0.03667 -0.02395,-0.08148 -0.02472,-0.04481 -0.05442,-0.08149 -0.06596,-0.08149 -0.01155,0 -7.68e-4,0.03667 0.02395,0.08149 z m 0.168024,0.244455 c 0.04935,0.06723 0.09919,0.122227 0.110737,0.122227 0.01155,0 -0.01938,-0.055 -0.06872,-0.122227 -0.04935,-0.06723 -0.09919,-0.122229 -0.110737,-0.122229 -0.01155,0 0.01937,0.055 0.06872,0.122229 z m 0.126019,0.17835 c 0,0.0085 0.03308,0.04055 0.07352,0.07129 0.06663,0.05067 0.06811,0.04924 0.01586,-0.01538 -0.05488,-0.06786 -0.08935,-0.08946 -0.08935,-0.05591 z m 0.273041,0.310558 c 0.04181,0.04482 0.08548,0.08149 0.09703,0.08149 0.01155,0 -0.01322,-0.03667 -0.05503,-0.08149 -0.04181,-0.04482 -0.08548,-0.08147 -0.09703,-0.08147 -0.01155,0 0.01321,0.03667 0.05503,0.08147 z m 4.43165,-11.774546 c -0.03466,0.02173 -0.08192,0.03949 -0.105016,0.03949 -0.02311,0 -0.01365,-0.01777 0.021,-0.03949 0.03466,-0.02172 0.08192,-0.0395 0.105014,-0.0395 0.0231,0 0.01365,0.01777 -0.021,0.0395 z m 0.52572,9.81e-4 c 0.01464,0.02297 0.0024,0.03672 -0.02711,0.03055 -0.02955,-0.0062 -0.05487,0.0072 -0.05628,0.02955 -0.0042,0.06713 -0.06601,0.142598 -0.116788,0.142598 -0.02616,0 -0.01086,-0.02691 0.03397,-0.05981 0.04486,-0.03289 0.06505,-0.06039 0.0449,-0.06112 -0.02015,-7.12e-4 -0.01312,-0.0288 0.01565,-0.06241 0.06197,-0.07243 0.0708,-0.07405 0.105658,-0.01935 z m -0.399702,0.03974 c -0.03466,0.02172 -0.08192,0.0395 -0.105016,0.0395 -0.0231,0 -0.01365,-0.01777 0.021,-0.0395 0.03466,-0.02172 0.08192,-0.0395 0.105014,-0.0395 0.0231,0 0.01365,0.01777 -0.021,0.0395 z m -2.027671,0.02463 c -0.01395,0.01353 -0.0502,0.01499 -0.08051,0.0033 -0.03351,-0.013 -0.02355,-0.02266 0.02538,-0.02463 0.04427,-0.0018 0.0691,0.0079 0.05514,0.02141 z m 2.701269,0.14985 c 0.059,-0.01617 0.616643,0.586143 0.840226,0.90751 0.1209354,0.173827 0.3099793,0.501096 0.4200966,0.727265 0.3044949,0.6254 0.2939298,0.68446 -0.015253,0.08527 -0.182739,-0.354138 -0.3722426,-0.647784 -0.5718686,-0.886146 -0.164209,-0.196073 -0.284971,-0.356498 -0.26836,-0.356498 0.01662,0 -0.03391,-0.06418 -0.112296,-0.142596 -0.163081,-0.163194 -0.27762,-0.19757 -0.12284,-0.03686 l 0.101837,0.105732 -0.178527,-0.112969 c -0.09818,-0.06213 -0.178526,-0.129129 -0.178526,-0.14888 0,-0.01974 -0.01869,-0.02471 -0.04153,-0.01102 -0.02496,0.01497 -0.03019,-0.0044 -0.01314,-0.04852 0.02582,-0.06681 0.02105,-0.06797 -0.05299,-0.013 -0.07879,0.05849 -0.07905,0.05774 -0.0078,-0.02358 0.09309,-0.106351 0.09572,-0.166531 0.0041,-0.09276 -0.03821,0.03075 -0.08074,0.05316 -0.09451,0.04981 -0.01377,-0.0034 -0.01985,0.01175 -0.01351,0.03358 0.0064,0.02185 -0.0092,0.02722 -0.03467,0.012 -0.03027,-0.01814 -0.0127,-0.06228 0.05091,-0.127968 l 0.09712,-0.10027 0.07962,0.09438 c 0.04379,0.05191 0.09419,0.09037 0.112012,0.0855 z m -0.0015,0.04462 c 0,0.0085 0.03308,0.04055 0.07351,0.07129 0.06662,0.05067 0.06811,0.04923 0.01586,-0.01538 -0.05487,-0.06786 -0.08936,-0.08944 -0.08936,-0.05591 z m 1.6743433,2.673614 c 0,0.03851 -0.013347,0.03099 -0.036097,-0.02037 -0.019851,-0.04482 -0.036097,-0.108986 -0.036097,-0.142599 0,-0.03852 0.013347,-0.03099 0.036097,0.02037 0.019871,0.04481 0.036097,0.108986 0.036097,0.142599 z m 0.034598,0.170607 c -0.013416,0.0325 -0.023357,0.02285 -0.025382,-0.02463 -0.00179,-0.04295 0.00804,-0.06701 0.022075,-0.05348 0.013952,0.01353 0.015452,0.04869 0.00338,0.07809 z m 0.042016,0.162971 c -0.013406,0.03249 -0.023357,0.02285 -0.025382,-0.02462 -0.00179,-0.04295 0.00804,-0.06701 0.022076,-0.05348 0.013952,0.01353 0.015452,0.04869 0.00338,0.07809 z m 0.042016,0.162969 c -0.013406,0.0325 -0.023357,0.02285 -0.025382,-0.02463 -0.00179,-0.04295 0.00804,-0.06701 0.022075,-0.05348 0.013952,0.01353 0.015452,0.04869 0.00338,0.07809 z m 0.041132,0.247001 c -0.011648,0.02801 -0.021192,0.0051 -0.021192,-0.05093 0,-0.05601 0.00953,-0.07895 0.021192,-0.05093 0.011648,0.02801 0.011648,0.07385 0,0.101857 z m 0.042016,0.244453 c -0.011648,0.02801 -0.021192,0.0051 -0.021192,-0.05092 0,-0.05601 0.00953,-0.07895 0.021192,-0.05092 0.011648,0.02801 0.011648,0.07385 0,0.101855 z m 0.043138,0.305569 c -0.010576,0.03921 -0.019215,0.0072 -0.019215,-0.0713 0,-0.07843 0.00864,-0.110516 0.019215,-0.07129 0.010566,0.03922 0.010566,0.103384 0,0.142599 z m 0.043138,0.488907 c -0.00963,0.06162 -0.017498,0.01121 -0.017498,-0.11204 0,-0.123246 0.00785,-0.173664 0.017498,-0.112043 0.00963,0.06162 0.00963,0.162461 0,0.224083 z m -8.9487053,1.036385 c -0.01341,0.0325 -0.02336,0.02285 -0.02538,-0.02463 -0.0018,-0.04295 0.008,-0.06701 0.02208,-0.05348 0.01396,0.01353 0.01545,0.04869 0.0034,0.07809 z m 8.9487053,0.22663 c -0.00963,0.06162 -0.017498,0.0112 -0.017498,-0.112043 0,-0.123244 0.00785,-0.173664 0.017498,-0.112039 0.00963,0.06163 0.00963,0.162459 0,0.224082 z m -0.043138,0.407424 c -0.010576,0.03921 -0.019215,0.0072 -0.019215,-0.0713 0,-0.07843 0.00864,-0.110515 0.019215,-0.0713 0.010566,0.03921 0.010566,0.103382 0,0.142598 z m -0.043138,0.305567 c -0.011648,0.02801 -0.021192,0.0051 -0.021192,-0.05092 0,-0.05602 0.00953,-0.07895 0.021192,-0.05092 0.011648,0.02801 0.011648,0.07385 0,0.101856 z m -0.041132,0.241908 c -0.013406,0.0325 -0.023357,0.02285 -0.025382,-0.02463 -0.00179,-0.04295 0.00804,-0.06701 0.022076,-0.05348 0.013952,0.01353 0.015452,0.04868 0.00338,0.07809 z m -9.0294193,0.471084 c -0.0091,0.08403 -0.01647,0.01528 -0.01647,-0.152784 0,-0.168062 0.0073,-0.236816 0.01647,-0.152784 0.0091,0.08403 0.0091,0.221537 0,0.305568 z m 8.9874133,-0.267372 c -0.013416,0.0325 -0.023357,0.02285 -0.025382,-0.02463 -0.00179,-0.04295 0.00804,-0.06701 0.022075,-0.05348 0.013952,0.01353 0.015452,0.04869 0.00338,0.07809 z m -0.042016,0.203713 c -0.013416,0.0325 -0.023357,0.02285 -0.025382,-0.02463 -0.00179,-0.04295 0.00804,-0.06701 0.022075,-0.05348 0.013952,0.01353 0.015452,0.04869 0.00338,0.07809 z m -0.042016,0.203711 c -0.013416,0.0325 -0.023357,0.02285 -0.025382,-0.02463 -0.00179,-0.04295 0.00804,-0.06701 0.022075,-0.05348 0.013952,0.01353 0.015452,0.04869 0.00338,0.07809 z m -0.042016,0.162969 c -0.013416,0.03249 -0.023357,0.02285 -0.025382,-0.02462 -0.00179,-0.04295 0.00804,-0.06701 0.022075,-0.05348 0.013952,0.01353 0.015452,0.04869 0.00338,0.07809 z M -18.0566,21.045374 c -0.01341,0.0325 -0.02336,0.02285 -0.02538,-0.02463 -0.0018,-0.04295 0.008,-0.06701 0.02208,-0.05348 0.01395,0.01353 0.01545,0.04869 0.0034,0.07809 z m 0.04201,0.325939 c -0.01342,0.0325 -0.02336,0.02285 -0.02538,-0.02463 -0.0018,-0.04295 0.008,-0.06701 0.02208,-0.05348 0.01395,0.01353 0.01545,0.04869 0.0034,0.07809 z m 8.4196722,0.3458 c -0.049533,0.08259 -0.06148,0.05616 -0.020943,-0.04629 0.014399,-0.03641 0.035045,-0.05763 0.045859,-0.04713 0.010814,0.01049 -3.783e-4,0.05253 -0.024916,0.09344 z m -0.2102654,0.48812 c -0.046852,0.08615 -0.086038,0.1435 -0.087041,0.127452 -0.00298,-0.04685 0.1375771,-0.317703 0.1557311,-0.300095 0.00914,0.0088 -0.021827,0.0865 -0.068679,0.172643 z m -0.1677061,0.350832 c -0.04149,0.03996 -0.046306,0.03526 -0.023515,-0.02281 0.01579,-0.04018 0.039265,-0.06279 0.052185,-0.05026 0.012939,0.01255 2.59e-5,0.04541 -0.028669,0.07305 z m -7.0988967,1.608647 c 0.05224,0.06462 0.05077,0.06606 -0.01586,0.01538 -0.04044,-0.03075 -0.07352,-0.06285 -0.07352,-0.0713 0,-0.03353 0.03449,-0.01195 0.08935,0.05591 z m 0.456711,0.519465 c 0.125489,0.123245 0.218711,0.224082 0.207161,0.224082 -0.01155,0 -0.123678,-0.100837 -0.249168,-0.224082 -0.125491,-0.123245 -0.218713,-0.224083 -0.207161,-0.224083 0.01155,0 0.123677,0.100838 0.249168,0.224083 z m 1.295211,0.870914 c 0.04511,0.02774 0.04307,0.03927 -0.0105,0.05922 -0.03659,0.01362 -0.09647,0.01362 -0.133062,0 -0.05357,-0.01993 -0.0556,-0.03148 -0.0105,-0.05922 0.03082,-0.01895 0.06549,-0.03444 0.07704,-0.03444 0.01155,0 0.04622,0.0155 0.07704,0.03444 z m 1.676725,-13.046271 c 0.02889,0.0113 0.07614,0.0113 0.105014,0 0.02889,-0.01131 0.0052,-0.02055 -0.05251,-0.02055 -0.05776,0 -0.08138,0.0092 -0.0525,0.02055 z m -1.206561,0.362266 c -0.597274,0.304827 -0.957553,0.582571 -1.599656,1.233209 -0.571787,0.579384 -0.950148,1.06079 -1.246851,1.58642 -0.260215,0.460998 -0.218591,0.313914 0.05391,-0.190502 0.128135,-0.237179 0.202828,-0.394568 0.165986,-0.34975 -0.114419,0.139186 -0.603665,1.099898 -0.751533,1.475752 -0.28635,0.727855 -0.523736,1.699336 -0.61216,2.505208 -0.05552,0.506114 -0.0553,1.616095 4.38e-4,2.089652 0.265037,2.2518 1.413807,4.036981 2.971836,4.61821 0.178094,0.06643 0.41832,0.132375 0.533838,0.146526 0.190752,0.02336 0.177256,0.01498 -0.147022,-0.0914 -1.135057,-0.372353 -1.935193,-1.083824 -2.549687,-2.267154 -0.220742,-0.425081 -0.477047,-1.102271 -0.532905,-1.407994 -0.01432,-0.07843 0.03642,0.04093 0.11278,0.265257 0.157678,0.463213 0.569524,1.282152 0.859239,1.708551 0.284535,0.41878 0.967026,1.060664 1.379907,1.297808 0.536226,0.307987 1.12865,0.475591 1.683827,0.476374 0.33212,4.7e-4 0.297829,-0.05928 -0.04129,-0.07193 -0.448952,-0.01676 -1.274266,-0.220136 -1.222571,-0.301263 0.01156,-0.01814 -0.01142,-0.02092 -0.05106,-0.0062 -0.04857,0.01808 -0.06227,0.01144 -0.04201,-0.02038 0.02027,-0.0318 0.0066,-0.03845 -0.04201,-0.02038 -0.04857,0.01808 -0.06227,0.01144 -0.04201,-0.02037 0.01919,-0.03014 0.0079,-0.039 -0.03087,-0.02453 -0.03353,0.01248 -0.07523,2.64e-4 -0.09268,-0.02713 -0.0203,-0.03186 -0.01425,-0.03933 0.01675,-0.02075 0.02668,0.01599 0.04849,0.01947 0.04849,0.0078 0,-0.01174 -0.04009,-0.04215 -0.08909,-0.06759 -0.0613,-0.03181 -0.08028,-0.03241 -0.06083,-0.0019 0.01749,0.02744 0.004,0.03529 -0.03561,0.02058 -0.03511,-0.01307 -0.05974,-0.04495 -0.05469,-0.07083 0.005,-0.02589 -0.02579,-0.04126 -0.06855,-0.03415 -0.04353,0.0073 -0.06633,-0.005 -0.05183,-0.02774 0.01424,-0.02236 0.0038,-0.05392 -0.02328,-0.07013 -0.0331,-0.01984 -0.03838,-0.01077 -0.01615,0.02774 0.01818,0.03148 -0.02143,0.0012 -0.08801,-0.06725 -0.06658,-0.06845 -0.102153,-0.09532 -0.07905,-0.05972 0.07218,0.111243 -0.306847,-0.290376 -0.569986,-0.603975 -0.138108,-0.164591 -0.279821,-0.353113 -0.314917,-0.418941 -0.03508,-0.06583 -0.0806,-0.109622 -0.10113,-0.09732 -0.02053,0.0123 -0.05098,9.03e-4 -0.06772,-0.02534 -0.02007,-0.03152 -0.01209,-0.03674 0.02355,-0.01536 0.03618,0.02168 0.04696,0.0137 0.03274,-0.02427 -0.01166,-0.03114 -0.04387,-0.05156 -0.07158,-0.04541 -0.02772,0.0062 -0.03913,-0.0065 -0.02537,-0.02805 0.03578,-0.05614 -0.236161,-0.574303 -0.285783,-0.544556 -0.02441,0.01463 -0.02998,-0.0039 -0.01364,-0.04516 0.01521,-0.03845 0.01059,-0.05967 -0.01029,-0.04716 -0.04322,0.02591 -0.308346,-0.720226 -0.397468,-1.118568 -0.03258,-0.145653 -0.06284,-0.218988 -0.06722,-0.162969 -0.01184,0.151289 -0.10957,-0.220166 -0.175786,-0.668167 -0.07003,-0.473766 -0.06879,-1.86832 0.0021,-2.428253 0.09969,-0.786826 0.472831,-2.004174 0.849195,-2.770482 0.206338,-0.420119 0.532443,-0.977815 0.571765,-0.977815 0.01098,0 -0.05725,0.136476 -0.151632,0.303278 -0.1719,0.303787 -0.509549,1.019609 -0.506411,1.073604 9.18e-4,0.0158 0.129983,-0.227948 0.28681,-0.541664 0.523455,-1.047113 1.221408,-1.932163 1.956709,-2.481237 0.423756,-0.316431 0.502655,-0.365575 0.968284,-0.603099 0.20793,-0.106068 0.349701,-0.193039 0.315046,-0.193263 -0.03466,-2.46e-4 -0.260985,0.100627 -0.502956,0.224119 z m -3.146452,3.427293 c -0.04953,0.08259 -0.06148,0.05615 -0.02094,-0.04629 0.0144,-0.03641 0.03504,-0.05761 0.04586,-0.04712 0.01082,0.01049 -3.93e-4,0.05253 -0.02492,0.09344 z m -0.56452,1.691317 c -0.01341,0.03249 -0.02336,0.02285 -0.02538,-0.02463 -0.0018,-0.04295 0.008,-0.06701 0.02208,-0.05348 0.01395,0.01353 0.01545,0.04869 0.0034,0.07809 z m -0.08401,0.407424 c -0.01342,0.0325 -0.02336,0.02285 -0.02539,-0.02463 -0.0018,-0.04295 0.008,-0.06701 0.02208,-0.05348 0.01395,0.01353 0.01545,0.04869 0.0034,0.07809 z m -0.04201,0.244455 c -0.01341,0.0325 -0.02336,0.02285 -0.02537,-0.02463 -0.0018,-0.04295 0.008,-0.06701 0.02208,-0.05348 0.01395,0.01353 0.01545,0.04869 0.0034,0.0781 z m -0.04288,0.287742 c -0.01165,0.02801 -0.02118,0.0051 -0.02118,-0.05092 0,-0.056 0.0095,-0.07894 0.02118,-0.05092 0.01165,0.02801 0.01165,0.07385 0,0.101857 z m -0.04086,0.427795 c -0.01057,0.03922 -0.01922,0.0072 -0.01922,-0.07129 0,-0.07843 0.0085,-0.110515 0.01922,-0.0713 0.01058,0.03922 0.01058,0.103383 0,0.142598 z m -0.03995,0.956079 c -0.0084,0.118396 -0.01556,0.03192 -0.01568,-0.192159 -1.08e-4,-0.224084 0.0069,-0.320952 0.01547,-0.215265 0.0085,0.10569 0.0087,0.289031 1.99e-4,0.407424 z m 0.0407,0.693513 c -0.01002,0.05069 -0.01865,0.01881 -0.0191,-0.07082 -4.65e-4,-0.08963 0.0077,-0.131097 0.01826,-0.09214 0.01052,0.03895 0.01089,0.112289 8.51e-4,0.16297 z m 0.0414,0.34601 c -0.01066,0.03964 -0.02006,0.01707 -0.02092,-0.05016 -8.57e-4,-0.06723 0.0078,-0.09966 0.01936,-0.07207 0.01151,0.02758 0.0122,0.08259 0.0015,0.122228 z m 0.04072,0.2656 c -0.01165,0.02801 -0.02118,0.0051 -0.02118,-0.05093 0,-0.05601 0.0095,-0.07895 0.02118,-0.05092 0.01165,0.02801 0.01165,0.07385 0,0.101856 z m 0.04201,0.203712 c -0.01165,0.02801 -0.02118,0.0051 -0.02118,-0.05092 0,-0.05601 0.0095,-0.07895 0.02118,-0.05092 0.01165,0.02801 0.01165,0.07385 0,0.101857 z m 0.04201,0.203712 c -0.01165,0.02801 -0.02118,0.0051 -0.02118,-0.05093 0,-0.05601 0.0095,-0.07894 0.02118,-0.05092 0.01165,0.02801 0.01165,0.07385 0,0.101857 z m 0.807995,1.609323 c 0.04952,0.09522 0.08058,0.173154 0.06904,0.173154 -0.02388,0 -0.190737,-0.307475 -0.190737,-0.351477 0,-0.04462 0.02434,-0.0089 0.12171,0.178323 z m 0.31888,0.524482 c 0.03971,0.05878 0.05143,0.09443 0.02607,0.07922 -0.04849,-0.02907 -0.146294,-0.18609 -0.115908,-0.18609 0.0097,0 0.05014,0.04809 0.08984,0.106874 z m 0.273514,0.361666 c 0.05427,0.05601 0.0892,0.101855 0.07766,0.101855 -0.01155,0 -0.0654,-0.04583 -0.11966,-0.101855 -0.05427,-0.05601 -0.08921,-0.101859 -0.07766,-0.101859 0.01155,0 0.06541,0.04583 0.11966,0.101859 z m 0.462069,0.49739 c 0,0.03059 -0.03771,-0.0018 -0.211787,-0.18164 l -0.187271,-0.193524 0.199528,0.181637 c 0.109742,0.0999 0.19953,0.186988 0.19953,0.193527 z m 2.289633,-11.803866 c -0.01472,0.02309 0.0021,0.02993 0.03952,0.01602 0.07277,-0.02708 0.08611,-0.05629 0.02566,-0.05629 -0.02174,0 -0.05107,0.01813 -0.06517,0.04028 z m 5.7547409,0.996873 c 0.9868958,2.2847 1.0109305,5.032382 0.067239,7.685042 -0.4249091,1.194375 -1.1661195,2.504782 -1.8532659,3.276437 -0.165829,0.186223 -0.141199,0.168034 0.103399,-0.07637 0.8536434,-0.852918 1.8435591,-2.759075 2.1491374,-4.138318 0.07281,-0.328625 0.1667728,-0.462708 0.1228591,-0.175316 l -0.023347,0.152782 0.062791,-0.157106 c 0.082592,-0.206646 0.2195047,-0.909637 0.2471224,-1.268875 0.012066,-0.156858 0.00884,-0.221027 -0.00725,-0.142599 -0.019414,0.09474 -0.040705,0.125263 -0.063396,0.09096 -0.018798,-0.0284 -0.011271,-0.266743 0.016723,-0.529649 0.069732,-0.654858 0.027617,-1.913431 -0.086187,-2.576245 -0.1592782,-0.927644 -0.4299618,-1.772857 -0.7404695,-2.312128 -0.080636,-0.140052 -0.1539764,-0.254641 -0.1629674,-0.254641 -0.00904,0 0.066465,0.191707 0.1676724,0.426013 z m 0.8182839,5.410331 c -4.876e-4,0.100482 -0.010467,0.117674 -0.041361,0.07129 -0.053347,-0.08007 -0.053347,-0.203712 0,-0.203712 0.023098,0 0.041708,0.05958 0.041361,0.132414 z m -0.04432,0.287603 c -0.00278,0.08606 -0.00427,0.08634 -0.039057,0.0078 -0.049692,-0.112143 -0.049692,-0.152009 0,-0.122228 0.023108,0.01385 0.040675,0.06536 0.039057,0.114448 z m -0.039692,0.224082 c -5.542e-4,0.05938 -0.00626,0.06045 -0.041361,0.0078 -0.053158,-0.07978 -0.053158,-0.133725 0,-0.101856 0.023098,0.01385 0.041708,0.05618 0.041361,0.09408 z m -0.042016,0.203712 c -5.551e-4,0.05937 -0.00626,0.06045 -0.041361,0.0078 -0.053158,-0.07979 -0.053158,-0.133724 0,-0.101857 0.023098,0.01385 0.041708,0.05619 0.041361,0.09408 z m -0.041361,0.195931 c 0,0.03361 -0.018908,0.04979 -0.042016,0.03595 -0.023108,-0.01385 -0.042016,-0.05268 -0.042016,-0.08629 0,-0.0336 0.018908,-0.04978 0.042016,-0.03594 0.023088,0.01385 0.042016,0.05268 0.042016,0.08629 z m -9.4648628,-4.077163 c -0.09868,0.200708 -0.08479,0.234861 0.01836,0.04519 0.04685,-0.08615 0.07775,-0.163835 0.06867,-0.172643 -0.0091,-0.0088 -0.04825,0.04855 -0.08704,0.127453 z m -0.4224,0.121909 c -0.04054,0.102455 -0.02858,0.12889 0.02094,0.04629 0.02453,-0.04089 0.03574,-0.08294 0.02492,-0.09344 -0.01082,-0.0105 -0.03145,0.01073 -0.04586,0.04713 z m -0.525946,1.565217 c -0.07554,0.341646 -0.139289,0.780794 -0.116541,0.802858 0.0117,0.01135 0.0356,-0.08632 0.0531,-0.217059 0.0244,-0.182161 0.03797,-0.213901 0.05812,-0.135845 0.01987,0.07697 0.0437,0.01802 0.09751,-0.241204 0.0839,-0.404207 0.06475,-0.490963 -0.02616,-0.118544 -0.03463,0.141842 -0.06416,0.221226 -0.06564,0.17641 -0.0015,-0.04482 0.01641,-0.161826 0.03975,-0.260019 0.02334,-0.0982 0.03418,-0.186544 0.02408,-0.196336 -0.01011,-0.0098 -0.03901,0.07558 -0.06425,0.189739 z m 0.423459,0.0084 c -0.02529,0.109818 -0.04244,0.139511 -0.04522,0.07836 -0.0067,-0.147108 -0.04065,-0.08522 -0.08917,0.16268 -0.02379,0.121539 -0.02975,0.303481 -0.01325,0.404319 0.02893,0.176678 0.03351,0.165667 0.12615,-0.302969 0.05289,-0.267471 0.08851,-0.493713 0.0792,-0.502763 -0.0093,-0.009 -0.03529,0.06312 -0.0577,0.160371 z m -0.06391,0.329607 c -0.01165,0.02801 -0.02118,0.0051 -0.02118,-0.05093 0,-0.056 0.0095,-0.07894 0.02118,-0.05092 0.01165,0.02801 0.01165,0.07385 0,0.101857 z m -0.04071,0.223308 c -0.01065,0.03964 -0.02006,0.01706 -0.02092,-0.05016 -8.58e-4,-0.06723 0.0078,-0.09966 0.01937,-0.07207 0.01151,0.02758 0.0122,0.08259 0.0015,0.122227 z m -0.442541,2.414761 c 0,0.056 0.0095,0.07895 0.02118,0.05092 0.01165,-0.02801 0.01165,-0.07385 0,-0.101856 -0.01165,-0.02801 -0.02118,-0.0051 -0.02118,0.05093 z m 0.04356,0.305568 c 8.56e-4,0.06723 0.01028,0.0898 0.02092,0.05016 0.01065,-0.03964 0.0099,-0.09465 -0.0015,-0.122228 -0.01151,-0.02758 -0.02023,0.0048 -0.01936,0.07208 z m 0.376498,0.101855 c 0,0.05601 0.0095,0.07895 0.02118,0.05092 0.01165,-0.02801 0.01165,-0.07385 0,-0.101857 -0.01165,-0.02801 -0.02118,-0.0051 -0.02118,0.05092 z m -0.332936,0.16297 c 0,0.07843 0.0086,0.110513 0.01922,0.07129 0.01057,-0.03921 0.01057,-0.103383 0,-0.142599 -0.01058,-0.03922 -0.01922,-0.0072 -0.01922,0.0713 z m 0.374942,0.04075 c 0,0.05601 0.0095,0.07894 0.02118,0.05093 0.01165,-0.02801 0.01165,-0.07385 0,-0.101857 -0.01165,-0.02801 -0.02118,-0.0051 -0.02118,0.05092 z m 8.5512583,2.594019 c -0.2547381,0.357207 -0.6238553,0.835544 -0.7789133,1.009388 -0.08517,0.09549 -0.04632,0.06398 0.08635,-0.07003 0.3529453,-0.356541 0.9370571,-1.129571 0.8535198,-1.129571 -0.013913,0 -0.086336,0.08559 -0.1609485,0.19022 z m -2.5983723,0.858897 c -0.05226,0.06462 -0.05077,0.06605 0.01586,0.01538 0.06997,-0.05322 0.09222,-0.08668 0.05766,-0.08668 -0.0087,0 -0.0418,0.03207 -0.07352,0.0713 z m -2.02144,0.729787 c 0.02888,0.0113 0.07614,0.0113 0.105015,0 0.02889,-0.0113 0.0052,-0.02056 -0.05251,-0.02056 -0.05775,0 -0.08138,0.0092 -0.05251,0.02056 z m 2.179637,0.306955 c -0.06611,0.0478 -0.349651,0.204004 -0.630093,0.34713 -0.280438,0.143123 -0.462633,0.248115 -0.404875,0.23331 0.173215,-0.0444 0.910376,-0.428558 1.058866,-0.551811 0.162936,-0.135241 0.148118,-0.152994 -0.0239,-0.02863 z m -0.06884,0.379406 c -0.443279,0.225657 -0.911488,0.390585 -1.040088,0.366373 -0.09106,-0.01714 -0.09756,-0.01423 -0.03106,0.01394 0.07382,0.03127 0.06618,0.03952 -0.06302,0.06785 -0.08085,0.01773 -0.126905,0.03906 -0.102318,0.04737 0.07164,0.02425 0.757968,-0.181104 1.040528,-0.311332 0.218233,-0.100582 0.55851,-0.325388 0.489999,-0.323719 -0.01155,2.82e-4 -0.143871,0.06305 -0.294043,0.13951 z"
         id="path18850" />
      <g
         id="g18860"
         transform="translate(-1.19865,0.48239468)"
         style="display:inline">
        <path
           style="font-size:9.22484px;line-height:1.05;font-family:Georgia;-inkscape-font-specification:'Georgia Bold';text-align:center;text-anchor:middle;fill:#74592c;fill-rule:evenodd;stroke-width:0.0882307"
           d="m -6.5447583,16.213653 -4.1664927,2.166576 v -0.617091 l 3.4638193,-1.806231 -3.4638193,-1.801726 v -0.617092 l 4.1664927,2.166576 z"
           id="text18854"
           transform="matrix(0.70401829,0.24273981,-0.43771259,1.2694979,0,0)"
           aria-label="&gt;" />
        <path
           style="font-size:9.22484px;line-height:1.05;font-family:Georgia;-inkscape-font-specification:'Georgia Bold';text-align:center;text-anchor:middle;fill:#74592c;fill-rule:evenodd;stroke-width:0.0882307"
           d="m -4.2044449,16.237768 -4.1664927,2.166576 v -0.617091 l 3.4638193,-1.806231 -3.4638193,-1.801727 v -0.617091 l 4.1664927,2.166576 z"
           id="text18858"
           inkscape:label="text18858"
           transform="matrix(0.70401829,0.24273981,-0.43771259,1.2694979,0,0)"
           aria-label="&gt;" />
      </g>
    </g>
  </g>
</svg>
