<svg width="20" height="18" viewBox="0 0 20 18" fill="none" xmlns="http://www.w3.org/2000/svg">
<path fill-rule="evenodd" clip-rule="evenodd" d="M1.36138 7.73109C6.67728 5.41504 10.2221 3.88816 11.9957 3.15044C17.0598 1.04412 18.112 0.678226 18.7979 0.666144C18.9487 0.663487 19.286 0.700871 19.5045 0.878152C19.689 1.02784 19.7398 1.23006 19.764 1.37198C19.7883 1.51391 19.8186 1.83721 19.7945 2.08983C19.5201 4.97323 18.3327 11.9705 17.7286 15.1999C17.473 16.5664 16.9696 17.0246 16.4824 17.0695C15.4234 17.1669 14.6193 16.3696 13.5937 15.6973C11.9887 14.6453 11.0821 13.9904 9.52421 12.9638C7.72383 11.7773 8.89094 11.1253 9.91697 10.0596C10.1855 9.78069 14.8512 5.53684 14.9415 5.15186C14.9528 5.10371 14.9633 4.92423 14.8567 4.82947C14.7501 4.7347 14.5927 4.7671 14.4791 4.79288C14.3182 4.82941 11.7543 6.52405 6.78746 9.87679C6.05971 10.3765 5.40053 10.62 4.80993 10.6072C4.15885 10.5932 2.90641 10.2391 1.97536 9.93646C0.833384 9.56525 -0.0742357 9.36899 0.00479754 8.73855C0.0459629 8.41019 0.498156 8.07437 1.36138 7.73109Z" fill="black"/>
</svg>
